# xmcd
#
# Track frame offsets:
#	150
#	13851
#	30083
#	39417
#	50175
#	60466
#	75220
#	87025
#
# Disc length: 1340 seconds
#
# Revision: 1
# Processed by: cddbd v1.4PL0 Copyright (c) Steve Scherf et al.
# Submitted via: audiograbber 1.82.02
#
DISCID=4e053a08
DTITLE=Pinnacles - He Will Provide
DYEAR=1990
DGENRE=Gospel
TTITLE0=He Will Provide
TTITLE1=Go to the Son
TTITLE2=Trust in Him
TTITLE3=Down On My Knees
TTITLE4=I Saw the Light
TTITLE5=Operator
TTITLE6=Little Mountain Church House
TTITLE7=God Bless the USA
EXTD=
EXTT0=
EXTT1=
EXTT2=
EXTT3=
EXTT4=
EXTT5=
EXTT6=
EXTT7=
PLAYORDER=
